<?xml version="1.0" encoding="UTF-8"?>
<svg width="24px" height="25px" viewBox="0 0 24 25" version="1.1" xmlns="http://www.w3.org/2000/svg" xmlns:xlink="http://www.w3.org/1999/xlink">
    <title>dribbble</title>
    <g id="dribbble" stroke="none" stroke-width="1" fill="none" fill-rule="evenodd">
        <g transform="translate(0.000000, 1.000000)" fill="#02365E" fill-rule="nonzero" id="Shape">
            <path d="M12,0 C5.382813,0 0,5.382813 0,12 C0,18.617188 5.382813,24 12,24 C18.617188,24 24,18.617188 24,12 C24,5.382813 18.617188,0 12,0 Z M12,2 C14.535156,2 16.832031,2.953125 18.59375,4.5 C18.40625,4.761719 18.152344,5.078125 17.75,5.46875 C16.894531,6.296875 15.527344,7.292969 13.4375,8.0625 C12.023438,5.449219 10.636719,3.484375 9.71875,2.25 C10.449219,2.082031 11.214844,2 12,2 Z M7.75,2.9375 C8.570313,4.011719 10.03125,6.003906 11.5,8.65625 C7.433594,9.734375 3.703125,9.871094 2.21875,9.875 C2.882813,6.785156 4.960938,4.242188 7.75,2.9375 Z M19.96875,5.96875 C21.1875,7.582031 21.945313,9.578125 22,11.75 C21.109375,11.550781 19.796875,11.355469 18.09375,11.34375 C17.207031,11.339844 16.203125,11.402344 15.125,11.53125 C14.875,10.960938 14.605469,10.410156 14.34375,9.875 C16.585938,9.015625 18.113281,7.882813 19.125,6.90625 C19.46875,6.570313 19.738281,6.261719 19.96875,5.96875 Z M12.40625,10.46875 C12.636719,10.933594 12.871094,11.410156 13.09375,11.90625 C8.820313,13.089844 5.75,16.714844 4.4375,18.53125 C2.925781,16.78125 2,14.5 2,12 C2,11.957031 2,11.917969 2,11.875 C3.351563,11.890625 7.648438,11.796875 12.40625,10.46875 Z M18.09375,13.3125 C19.878906,13.3125 21.113281,13.5625 21.84375,13.75 C21.378906,16.414063 19.875,18.699219 17.75,20.1875 C17.351563,17.796875 16.695313,15.523438 15.90625,13.4375 C16.695313,13.359375 17.441406,13.3125 18.09375,13.3125 Z M13.875,13.78125 C14.773438,16.0625 15.527344,18.566406 15.90625,21.21875 C14.710938,21.722656 13.382813,22 12,22 C9.707031,22 7.589844,21.230469 5.90625,19.9375 C6.933594,18.53125 9.953125,14.789063 13.875,13.78125 Z"></path>
        </g>
    </g>
</svg>