<?xml version="1.0" encoding="UTF-8"?>
<svg width="24px" height="25px" viewBox="0 0 24 25" version="1.1" xmlns="http://www.w3.org/2000/svg" xmlns:xlink="http://www.w3.org/1999/xlink">
    <title>facebook</title>
    <g id="facebook" stroke="none" stroke-width="1" fill="none" fill-rule="evenodd">
        <g transform="translate(0.000000, 1.000000)" fill="#02365E" fill-rule="nonzero" id="Shape">
            <path d="M2.18181818,0 C0.988636364,0 0,0.988636364 0,2.18181818 L0,21.8181818 C0,23.0113636 0.988636364,24 2.18181818,24 L21.8181818,24 C23.0113636,24 24,23.0113636 24,21.8181818 L24,2.18181818 C24,0.988636364 23.0113636,0 21.8181818,0 L2.18181818,0 Z M2,2 L22,2 L22,22 L16.2361111,22 L16.2361111,14.5 L19.1180556,14.5 L19.5347222,11.1666667 L16.2361111,11.1666667 L16.2361111,9.01388889 C16.2361111,8.04166667 16.4748267,7.38194444 17.8680556,7.38194444 L19.6736111,7.38194444 L19.6736111,4.36111111 C19.3654511,4.32204889 18.2977433,4.25694444 17.0694444,4.25694444 C14.5086811,4.25694444 12.7638889,5.79774333 12.7638889,8.66666667 L12.7638889,11.1666667 L9.84722222,11.1666667 L9.84722222,14.5 L12.7638889,14.5 L12.7638889,22 L2,22 L2,2 Z"></path>
        </g>
    </g>
</svg>