<?xml version="1.0" encoding="UTF-8"?>
<svg width="24px" height="25px" viewBox="0 0 24 25" version="1.1" xmlns="http://www.w3.org/2000/svg" xmlns:xlink="http://www.w3.org/1999/xlink">
    <title>instagram</title>
    <g id="instagram" stroke="none" stroke-width="1" fill="none" fill-rule="evenodd">
        <g transform="translate(0.000000, 1.000000)" fill="#02365E" fill-rule="nonzero" id="Shape">
            <path d="M6.98625,0.1672137 C3.15140652,0.1672137 0,3.31440174 0,7.1534637 L0,16.9409637 C0,20.7758072 3.14718804,23.9272137 6.98625,23.9272137 L16.77375,23.9272137 C20.6085935,23.9272137 23.76,20.7800267 23.76,16.9409637 L23.76,7.1534637 C23.76,3.31862022 20.612813,0.1672137 16.77375,0.1672137 L6.98625,0.1672137 Z M6.98625,2.3272137 L16.77375,2.3272137 C19.4442185,2.3272137 21.6,4.48299522 21.6,7.1534637 L21.6,16.9409637 C21.6,19.6114322 19.4442185,21.7672137 16.77375,21.7672137 L6.98625,21.7672137 C4.31578152,21.7672137 2.16,19.6114322 2.16,16.9409637 L2.16,7.1534637 C2.16,4.48299522 4.31578152,2.3272137 6.98625,2.3272137 Z M18.25875,4.6897137 C17.7145315,4.6897137 17.28,5.12424522 17.28,5.6684637 C17.28,6.21268218 17.7145315,6.6472137 18.25875,6.6472137 C18.8029685,6.6472137 19.2375,6.21268218 19.2375,5.6684637 C19.2375,5.12424522 18.8029685,4.6897137 18.25875,4.6897137 Z M11.88,5.5672137 C8.31515652,5.5672137 5.4,8.48237022 5.4,12.0472137 C5.4,15.6120572 8.31515652,18.5272137 11.88,18.5272137 C15.4448435,18.5272137 18.36,15.6120572 18.36,12.0472137 C18.36,8.48237022 15.4448435,5.5672137 11.88,5.5672137 Z M11.88,7.7272137 C14.2804685,7.7272137 16.2,9.64674522 16.2,12.0472137 C16.2,14.4476822 14.2804685,16.3672137 11.88,16.3672137 C9.47953152,16.3672137 7.56,14.4476822 7.56,12.0472137 C7.56,9.64674522 9.47953152,7.7272137 11.88,7.7272137 Z"></path>
        </g>
    </g>
</svg>