<?xml version="1.0" encoding="UTF-8"?>
<svg width="24px" height="25px" viewBox="0 0 24 25" version="1.1" xmlns="http://www.w3.org/2000/svg" xmlns:xlink="http://www.w3.org/1999/xlink">
    <title>linkedin</title>
    <g id="linkedin" stroke="none" stroke-width="1" fill="none" fill-rule="evenodd">
        <g transform="translate(0.000000, 1.000000)" fill="#02365E" fill-rule="nonzero" id="Shape">
            <path d="M2.72727273,0 C1.235796,0 0,1.235796 0,2.72727273 L0,21.2727273 C0,22.7642051 1.235796,24 2.72727273,24 L21.2727273,24 C22.7642051,24 24,22.7642051 24,21.2727273 L24,2.72727273 C24,1.235796 22.7642051,0 21.2727273,0 L2.72727273,0 Z M2.72727273,2.18181818 L21.2727273,2.18181818 C21.5838065,2.18181818 21.8181818,2.41619345 21.8181818,2.72727273 L21.8181818,21.2727273 C21.8181818,21.5838065 21.5838065,21.8181818 21.2727273,21.8181818 L2.72727273,21.8181818 C2.41619345,21.8181818 2.18181818,21.5838065 2.18181818,21.2727273 L2.18181818,2.72727273 C2.18181818,2.41619345 2.41619345,2.18181818 2.72727273,2.18181818 Z M5.93181818,4.05681818 C4.89630655,4.05681818 4.05681818,4.89630655 4.05681818,5.93181818 C4.05681818,6.96732982 4.89630655,7.80681818 5.93181818,7.80681818 C6.96732982,7.80681818 7.80681818,6.96732982 7.80681818,5.93181818 C7.80681818,4.89630655 6.96732982,4.05681818 5.93181818,4.05681818 Z M15.7840909,9.03409091 C14.2201702,9.03409091 13.1803975,9.89062473 12.75,10.7045455 L12.6818182,10.7045455 L12.6818182,9.27272727 L9.61363636,9.27272727 L9.61363636,19.6363636 L12.8181818,19.6363636 L12.8181818,14.5227273 C12.8181818,13.1718753 13.086648,11.8636364 14.7613636,11.8636364 C16.4105116,11.8636364 16.4318182,13.3892051 16.4318182,14.5909091 L16.4318182,19.6363636 L19.6363636,19.6363636 L19.6363636,13.9431818 C19.6363636,11.1562505 19.0440338,9.03409091 15.7840909,9.03409091 Z M4.36363636,9.27272727 L4.36363636,19.6363636 L7.60227273,19.6363636 L7.60227273,9.27272727 L4.36363636,9.27272727 Z"></path>
        </g>
    </g>
</svg>