<svg xmlns="http://www.w3.org/2000/svg" viewBox="0 0 512 640" x="0px" y="0px"><path d="M24,480H184a8,8,0,0,0,8-8V440a8,8,0,0,0-8-8V240a8,8,0,0,0,8-8V200a8,8,0,0,0-8-8h-.951c-3.268-17.04-14.23-32.748-31.049-44.323V136a24.039,24.039,0,0,0-16-22.624V72a8,8,0,0,0-10.53-7.589l-48,16A8,8,0,0,0,72,88v25.376A24.039,24.039,0,0,0,56,136v11.677C39.181,159.252,28.219,174.96,24.951,192H24a8,8,0,0,0-8,8v32a8,8,0,0,0,8,8V432a8,8,0,0,0-8,8v32A8,8,0,0,0,24,480Zm152-16H32V448H176Zm-8-80H96a8.009,8.009,0,0,1-8-8V280a8.009,8.009,0,0,1,8-8h72ZM32,224V208H176v16ZM120,83.1V112H88V93.766ZM80,128h48a8.009,8.009,0,0,1,8,8v8H72v-8A8.009,8.009,0,0,1,80,128ZM66.339,160h75.322c12.96,8.55,21.708,19.841,24.98,32H41.359C44.631,179.841,53.379,168.55,66.339,160ZM40,240H168v16H96a24.027,24.027,0,0,0-24,24v96a24.027,24.027,0,0,0,24,24h72v32H40Z"/><path d="M176,96a8,8,0,0,0,8,8h16a8,8,0,0,0,0-16H184A8,8,0,0,0,176,96Z"/><path d="M224,96a8,8,0,0,0,8,8h16a8,8,0,0,0,0-16H232A8,8,0,0,0,224,96Z"/><path d="M187.721,50.486l-14.783,6.123a8,8,0,1,0,6.124,14.782l14.782-6.123a8,8,0,0,0-6.123-14.782Z"/><path d="M232.066,32.117,217.285,38.24a8,8,0,1,0,6.123,14.782L238.189,46.9a8,8,0,1,0-6.123-14.782Z"/><path d="M172.938,135.391l14.783,6.123a8,8,0,0,0,6.123-14.782l-14.782-6.123a8,8,0,1,0-6.124,14.782Z"/><path d="M217.285,153.76l14.781,6.123a8,8,0,1,0,6.123-14.782l-14.781-6.123a8,8,0,0,0-6.123,14.782Z"/><path d="M488,32H296a8,8,0,0,0-8,8V472a8,8,0,0,0,8,8H488a8,8,0,0,0,8-8V40A8,8,0,0,0,488,32Zm-8,48H400V48h80ZM352,416V384h80v32ZM432,96v32H352V96Zm-96,32H304V96h32Zm48,16v32H304V144Zm-32,80V192h80v32Zm-16-32v32H304V192Zm48,48v32H304V240Zm-32,80V288h80v32Zm-16-32v32H304V288Zm48,48v32H304V336Zm-48,48v32H304V384Zm112,0h32v32H448Zm-48-16V336h80v32Zm48-48V288h32v32Zm-48-48V240h80v32Zm48-48V192h32v32Zm-48-48V144h80v32Zm48-48V96h32v32ZM384,48V80H304V48ZM304,432h80v32H304Zm96,32V432h80v32Z"/><text x="0" y="527" fill="#000000" font-size="5px" font-weight="bold" font-family="'Helvetica Neue', Helvetica, Arial-Unicode, Arial, Sans-serif">Created by iconixar</text><text x="0" y="532" fill="#000000" font-size="5px" font-weight="bold" font-family="'Helvetica Neue', Helvetica, Arial-Unicode, Arial, Sans-serif">from the Noun Project</text></svg>