<?xml version="1.0" encoding="UTF-8"?>
<svg width="25px" height="25px" viewBox="0 0 25 25" version="1.1" xmlns="http://www.w3.org/2000/svg" xmlns:xlink="http://www.w3.org/1999/xlink">
    <title>snapchat</title>
    <g id="snapchat" stroke="none" stroke-width="1" fill="none" fill-rule="evenodd">
        <g transform="translate(0.000000, 1.000000)" fill="#02365E" fill-rule="nonzero" id="Shape">
            <path d="M12.2012756,0.00333846154 C11.6341179,0.00709423077 10.5298516,0.0972384615 9.28661214,0.634348077 C8.02083714,1.17896923 6.64989387,2.22689615 5.80103522,4.08987692 C5.13246599,5.55847692 5.33529003,7.39140962 5.4404583,8.89756923 C5.28646214,8.86752115 5.15875734,8.88254519 4.92964099,8.77737692 C4.70803618,8.67596442 4.48643234,8.62713654 4.2685833,8.62713654 C3.8779583,8.62713654 3.54367368,8.73230481 3.2169006,8.92761731 C2.89012753,9.12292981 2.5107708,9.43843462 2.40560253,9.9793 C2.3417506,10.3173413 2.43940637,10.8206462 2.73613137,11.1812231 C3.03285637,11.5418 3.47230926,11.7972087 4.05824676,12.0225692 C4.19721887,12.0751538 4.30238714,12.13525 4.41882368,12.1728096 C4.6667208,12.2479298 4.93715349,12.32305 5.10992945,12.4131942 C5.28270637,12.5033385 5.30899772,12.5747029 5.29021791,12.5333865 C5.28646214,12.5671904 5.2639256,12.6498231 5.20007368,12.7737712 C5.18880541,12.7850394 5.18129387,12.792551 5.1700256,12.8038192 C5.1437333,12.8601596 3.7840583,15.8161394 1.02339099,16.2593481 C0.42618522,16.3532481 -0.0320474725,16.901626 0.00175637364,17.5213673 C0.0130246429,17.6903875 0.0656082967,17.8406279 0.121948681,17.9720885 C0.336040989,18.464126 0.760470797,18.7796308 1.32387176,19.0237712 C1.77834868,19.2190837 2.50701503,19.3580558 3.30704484,19.5045404 C3.32206887,19.557125 3.32206887,19.5533683 3.33709291,19.6247327 C3.37465349,19.7937529 3.4197256,20.0078462 3.4873333,20.2256942 C3.57372176,20.511151 3.80659387,20.8229 4.08829484,20.9768962 C4.3699958,21.1308923 4.61413618,21.1271365 4.74935253,21.1271365 C5.03856503,21.1271365 5.21885349,21.0745529 5.41041022,21.0369923 C5.72591503,20.9768962 6.06771214,20.9168 6.52218907,20.9168 C6.77384195,20.9168 7.06305445,20.931824 7.33348714,20.9768962 C7.7090881,21.0369923 8.12976118,21.322449 8.71569868,21.7280981 C9.56455734,22.3140356 10.6988718,23.0802615 12.351516,23.0802615 C12.3702958,23.0802615 12.3928323,23.0802615 12.4116121,23.0802615 C12.46044,23.0802615 12.5242929,23.0840173 12.5618525,23.0802615 C12.5919006,23.0802615 12.6219487,23.0802615 12.6519968,23.0802615 C14.304641,23.0802615 15.4351996,22.3140356 16.2878141,21.7280981 C16.8737516,21.3262048 17.3244727,21.0369923 17.7000737,20.9768962 C17.9705064,20.931824 18.2296708,20.9168 18.4813237,20.9168 C18.9282891,20.9168 19.2475496,20.9731404 19.5931025,21.0369923 C19.8334871,21.0820644 20.0250439,21.1271365 20.2541602,21.1271365 L20.2842083,21.1271365 C20.5058131,21.1271365 20.8138054,21.0670404 21.0654583,20.8867519 C21.3171112,20.7064635 21.4523275,20.4134952 21.5161795,20.1956462 C21.5800314,19.9815538 21.6251035,19.8012654 21.6664198,19.6247327 C21.6814439,19.5496125 21.6814439,19.557125 21.6964679,19.5045404 C22.4964977,19.3580558 23.2251641,19.2190837 23.679641,19.0237712 C24.2430429,18.7796308 24.6674718,18.464126 24.8815641,17.9720885 C24.9379045,17.8368721 24.9904881,17.6866317 25.0017564,17.5213673 C25.0355602,16.9128942 24.5961073,16.3570048 24.0101698,16.2593481 C23.9989016,16.2593481 23.99139,16.2593481 23.9801218,16.2593481 C22.5979102,16.0377433 21.5875439,15.2339577 20.8851698,14.4264154 C20.1827958,13.6188731 19.8297314,12.822599 19.8334871,12.8338673 C19.8259756,12.822599 19.8034391,12.7737712 19.8034391,12.7737712 C19.7395871,12.6498231 19.7170506,12.5671904 19.7132948,12.5333865 C19.694515,12.5747029 19.7208073,12.5033385 19.8935833,12.4131942 C20.0663602,12.32305 20.3367929,12.2479298 20.5846891,12.1728096 C20.7086371,12.13525 20.836342,12.0751538 20.9753141,12.0225692 C21.4898871,11.823501 21.8542208,11.6281885 22.1471891,11.3314635 C22.4401583,11.0347385 22.6354708,10.5915298 22.6279583,10.2196846 C22.6129343,9.42341058 22.0269968,8.98395769 21.4560833,8.77737692 C21.4523275,8.77737692 21.4598391,8.74732885 21.4560833,8.74732885 C21.444815,8.74357308 21.4373035,8.75108462 21.4260352,8.74732885 C21.1856506,8.65342885 20.9565343,8.62713654 20.7048814,8.62713654 C20.5321054,8.62713654 20.2766968,8.63089231 19.9536795,8.77737692 C19.788415,8.85249712 19.6907593,8.83371731 19.5630545,8.86752115 C19.6682227,7.36887308 19.8710477,5.55096442 19.2024775,4.08987692 C18.3536198,2.22689615 16.9864323,1.15267788 15.7169006,0.6043 C14.4473698,0.0559230769 13.2980304,0.00333846154 12.742141,0.00333846154 L12.6820448,0.00333846154 C12.6820448,0.00333846154 12.5731208,0.00333846154 12.4717083,0.00333846154 C12.4228804,0.00333846154 12.3627843,0.00333846154 12.3214679,0.00333846154 C12.2989323,0.00333846154 12.2688843,0.00333846154 12.2613718,0.00333846154 C12.2538602,0.00333846154 12.2876641,-0.00417307692 12.2012756,0.00333846154 Z M12.2613718,1.92641538 C12.2914198,1.92641538 12.3214679,1.92641538 12.351516,1.92641538 C12.3890766,1.92641538 12.4529285,1.92641538 12.5017564,1.92641538 C12.5994131,1.92641538 12.6820448,1.92641538 12.6820448,1.92641538 L12.742141,1.92641538 C13.1252545,1.92641538 14.007916,1.979 14.9356506,2.37713654 C15.8633852,2.77527404 16.8136554,3.48891538 17.4596891,4.901175 C17.7564141,5.55472115 17.7714381,7.45150577 17.6700256,8.98771346 L17.6399775,9.04780962 C17.6249535,9.26190192 17.6211977,9.47599519 17.6099295,9.67881923 C17.5949054,9.94549615 17.6925621,10.2084163 17.8803621,10.3999731 C17.9930429,10.5126538 18.4324958,10.7154779 18.9019968,10.8206462 C18.5526881,11.0197144 18.1583073,11.2788798 17.9404583,11.7821846 C17.7000737,12.338074 17.8089977,12.9165 18.0306025,13.4348288 C18.038115,13.4648769 18.0493823,13.494925 18.0606506,13.5249731 C18.0644064,13.5324856 18.0568948,13.5475096 18.0606506,13.5550212 C18.0606506,13.5587769 18.0606506,13.5813135 18.0606506,13.5850692 C18.0681631,13.5963375 18.0831871,13.603849 18.0906987,13.6151173 C18.1658189,13.7878942 18.5639564,14.6780683 19.4428621,15.6884346 C20.0287996,16.3607606 20.9039496,16.9880144 21.9368525,17.4913192 C21.6100795,17.5739519 21.4635958,17.6528279 20.945266,17.7317038 C20.4795208,17.8030683 20.1264564,18.2237413 20.0137756,18.4829058 C19.9086073,18.7195346 19.882315,18.9223587 19.8334871,19.1439635 C19.4578862,19.0763558 19.0372131,18.9937231 18.4813237,18.9937231 C18.1207468,18.9937231 17.7338775,19.0237712 17.3695448,19.0838673 C16.4418102,19.2341077 15.788265,19.7336567 15.2060833,20.13555 C14.3497131,20.7214875 13.7337275,21.1571846 12.6519968,21.1571846 C12.6144371,21.1571846 12.5768766,21.1609404 12.5318045,21.1571846 C12.4904881,21.1534288 12.4529285,21.1534288 12.4116121,21.1571846 C12.3928323,21.1571846 12.3590285,21.1571846 12.351516,21.1571846 C11.2697852,21.1571846 10.6462881,20.7214875 9.79742945,20.13555 C9.21149195,19.7336567 8.5654583,19.2341077 7.63396791,19.0838673 C7.26963522,19.0237712 6.88276599,18.9937231 6.52218907,18.9937231 C5.94000734,18.9937231 5.52309099,19.0538192 5.20007368,19.1139154 C5.15875734,18.9223587 5.11368522,18.7345587 5.01978522,18.5129538 C4.91086118,18.2575452 4.57657657,17.8105798 4.05824676,17.7317038 C3.55494195,17.6565837 3.4197256,17.5739519 3.0967083,17.4913192 C5.62825926,16.2668606 6.80013426,13.900574 6.91281407,13.6451654 C6.91281407,13.6451654 6.91281407,13.6151173 6.91281407,13.6151173 C6.91281407,13.6113615 6.93910637,13.5925817 6.94286214,13.5850692 C6.95788618,13.5587769 6.97666599,13.5399971 7.0029583,13.4348288 L6.94286214,13.4047808 C7.15695445,12.8864519 7.30343907,12.3305625 7.06305445,11.7821846 C6.83769387,11.2638558 6.42828907,10.9896663 6.07146791,10.7905981 C6.5184333,10.6966981 6.96539868,10.5614817 7.1231506,10.3999731 C7.31095157,10.2084163 7.40860734,9.94549615 7.3935833,9.67881923 C7.38231503,9.45345865 7.37855926,9.22809808 7.36353522,8.98771346 C7.26587945,7.44775 7.24709868,5.55472115 7.54382368,4.901175 C8.18985734,3.48891538 9.14388426,2.77527404 10.0678621,2.37713654 C10.991841,1.979 11.882015,1.92641538 12.2613718,1.92641538 Z"></path>
        </g>
    </g>
</svg>