<?xml version="1.0" encoding="UTF-8"?>
<svg width="24px" height="25px" viewBox="0 0 24 25" version="1.1" xmlns="http://www.w3.org/2000/svg" xmlns:xlink="http://www.w3.org/1999/xlink">
    <title>tiktok</title>
    <g id="tiktok" stroke="none" stroke-width="1" fill="none" fill-rule="evenodd">
        <g transform="translate(0.000000, 1.000000)" fill="#02365E" fill-rule="nonzero" id="Shape">
            <path d="M4.91874997,0.165149333 C2.21515339,0.165149333 0,2.38030272 0,5.08389931 L0,18.7130661 C0,21.4166629 2.21515339,23.631816 4.91874997,23.631816 L18.5479168,23.631816 C21.2515136,23.631816 23.4666667,21.4166629 23.4666667,18.7130661 L23.4666667,5.08389931 C23.4666667,2.38030272 21.2515136,0.165149333 18.5479168,0.165149333 L4.91874997,0.165149333 Z M4.91874997,2.29848267 L18.5479168,2.29848267 C20.0981867,2.29848267 21.3333333,3.53362933 21.3333333,5.08389931 L21.3333333,18.7130661 C21.3333333,20.263336 20.0981867,21.4984827 18.5479168,21.4984827 L4.91874997,21.4984827 C3.36848,21.4984827 2.13333333,20.263336 2.13333333,18.7130661 L2.13333333,5.08389931 C2.13333333,3.53362933 3.36848,2.29848267 4.91874997,2.29848267 Z M12.8,4.431816 L12.8,15.0984827 C12.8,16.2895931 11.8577771,17.231816 10.6666667,17.231816 C9.47555627,17.231816 8.53333333,16.2895931 8.53333333,15.0984827 C8.53333333,13.9073723 9.47555627,12.9651493 10.6666667,12.9651493 L10.6666667,10.831816 C8.32284373,10.831816 6.4,12.7546597 6.4,15.0984827 C6.4,17.4423056 8.32284373,19.3651493 10.6666667,19.3651493 C13.0104896,19.3651493 14.9333333,17.4423056 14.9333333,15.0984827 L14.9333333,8.5797328 C15.8163563,9.2635664 16.8632288,9.7482 18.0562496,9.76514933 L18.0874997,7.631816 C16.3314816,7.60686773 14.9333333,6.19632907 14.9333333,4.431816 L12.8,4.431816 Z"></path>
        </g>
    </g>
</svg>