<?xml version="1.0" encoding="UTF-8"?>
<svg width="23px" height="25px" viewBox="0 0 23 25" version="1.1" xmlns="http://www.w3.org/2000/svg" xmlns:xlink="http://www.w3.org/1999/xlink">
    <title>twitter</title>
    <g id="twitter" stroke="none" stroke-width="1" fill="none" fill-rule="evenodd">
        <g transform="translate(0.000000, 3.000000)" fill="#02365E" fill-rule="nonzero" id="Shape">
            <path d="M15.8649551,0.571428571 C13.0583343,0.571428571 10.7695821,2.86905143 10.7695821,5.67897766 C10.7695821,5.69926779 10.7769582,5.71807974 10.7771912,5.73833169 C7.80499455,5.34201221 5.17506519,3.87148312 3.36850649,1.65046701 C3.20694887,1.45188784 2.95816615,1.34531921 2.70295553,1.36537143 C2.44774491,1.38542365 2.21865875,1.52953905 2.0900974,1.75091325 C1.65158935,2.5065813 1.40219195,3.38698078 1.40219117,4.31838494 C1.40219117,5.14820286 1.63244078,5.92064519 1.98508494,6.61647688 C1.62484805,6.69273958 1.36715069,7.01073601 1.36718779,7.37895688 L1.36718779,7.43374623 C1.36718779,8.94434519 2.07156753,10.2528751 3.11739013,11.1898335 C2.902477,11.3960659 2.8239168,11.7067635 2.91497584,11.9903613 C3.35005377,13.347287 4.36326909,14.4112 5.6346387,15.0098418 C4.6181826,15.4867842 3.53004519,15.8286322 2.32903844,15.8286322 C2.0089361,15.8286322 1.69777143,15.8119577 1.39306026,15.7753655 C1.03229535,15.731281 0.688958663,15.9424305 0.56554213,16.284283 C0.442125597,16.6261355 0.571403346,17.0079096 0.87713039,17.2044439 C2.90603506,18.5109509 5.32444338,19.2727273 7.91446805,19.2727273 C12.0999496,19.2727273 15.4072416,17.5104034 17.6182018,14.9961447 C19.8291621,12.481886 20.9770696,9.23747091 20.9770696,6.18120961 C20.9770696,6.08875039 20.9729304,5.99970104 20.9709823,5.90878623 C21.7302738,5.2979761 22.4447748,4.62415195 22.9859982,3.81158675 C23.1673166,3.53728431 23.1569574,3.17869007 22.9601064,2.91531228 C22.7632553,2.65193449 22.4222737,2.54045065 22.107853,2.63666831 C22.2349688,2.38939039 22.4130044,2.17357662 22.4989852,1.90462701 C22.5979078,1.59597405 22.4954594,1.25831531 22.2417072,1.05666671 C21.987955,0.855018108 21.6358823,0.831483716 21.3575491,0.997564935 C20.6766356,1.40229455 19.9127958,1.66996468 19.120333,1.85592571 C18.2294834,1.09486312 17.1215156,0.571428571 15.8649551,0.571428571 Z M15.8649551,2.12987013 C16.886787,2.12987013 17.8010304,2.55955818 18.4461239,3.25 C18.6300918,3.44615261 18.9021939,3.53359338 19.1659906,3.48133117 C19.2866101,3.45751039 19.3833558,3.38032935 19.5023335,3.35196805 C19.4848322,3.36290831 19.4743797,3.3824239 19.4566758,3.39306026 C19.1540656,3.57469463 19.0113031,3.93702791 19.1086863,4.27626315 C19.2060694,4.61549838 19.5192837,4.84693593 19.8721595,4.84040208 C19.8172938,4.88239429 19.7850239,4.94904104 19.7290992,4.98954961 C19.5170216,5.14258356 19.3958463,5.39179268 19.4064527,5.65310442 C19.4138553,5.8287587 19.4186281,6.00551792 19.4186281,6.18120961 C19.4186281,8.84286961 18.3949688,11.7548348 16.4493706,13.9673294 C14.5037655,16.1798278 11.6684678,17.7142857 7.91446805,17.7142857 C6.6232439,17.7142857 5.40881429,17.4536683 4.25273974,17.0598618 C5.69198779,16.7556299 7.05420753,16.2469203 8.17014987,15.3690135 C8.42857142,15.1651924 8.53108333,14.8209952 8.42628763,14.5089974 C8.32149193,14.1969997 8.03198528,13.9844761 7.70292208,13.9779829 C6.59887455,13.9579335 5.7473,13.3323338 5.11262156,12.5230319 C5.34739377,12.4926423 5.59045766,12.4905384 5.81422494,12.428673 C6.16269824,12.3332277 6.39986749,12.0107739 6.38717865,11.6496888 C6.3744898,11.2886037 6.11527091,10.9835934 5.7609574,10.9128447 C4.47401039,10.6526091 3.46845247,9.68291247 3.10064935,8.42907844 C3.43244857,8.50925403 3.72338857,8.68872416 4.07619714,8.69998 C4.42342441,8.71061426 4.73576128,8.49013457 4.84200872,8.15939095 C4.94825615,7.82864732 4.82275447,7.46751724 4.53429403,7.27394442 C3.5841987,6.63735532 2.96063273,5.55591766 2.96063273,4.31838494 C2.96063273,4.0631574 3.09741169,3.86017351 3.14782883,3.62134701 C5.36095688,5.81717636 8.30565948,7.27501429 11.6218548,7.44287714 C11.8665635,7.45514275 12.1027928,7.35160772 12.2596187,7.16335677 C12.4164446,6.97510582 12.4756051,6.72406038 12.4193382,6.48559273 C12.3586268,6.22820052 12.3280236,5.95942234 12.3280236,5.67897766 C12.3280236,3.70916208 13.9027447,2.12987013 15.8649551,2.12987013 Z"></path>
        </g>
    </g>
</svg>