<?xml version="1.0" encoding="UTF-8"?>
<svg width="23px" height="25px" viewBox="0 0 23 25" version="1.1" xmlns="http://www.w3.org/2000/svg" xmlns:xlink="http://www.w3.org/1999/xlink">
    <title>twitch</title>
    <g id="twitch" stroke="none" stroke-width="1" fill="none" fill-rule="evenodd">
        <g transform="translate(0.000000, 1.000000)" fill="#02365E" fill-rule="nonzero" id="Shape">
            <path d="M1.56818182,0 L0,4.18181818 L0,20.9090909 L5.75,20.9090909 L5.75,24.0454545 L8.88636364,24.0454545 L12.0227273,20.9090909 L16.7272727,20.9090909 L23,14.6363636 L23,0 L1.56818182,0 Z M4.18181818,2.09090909 L20.9090909,2.09090909 L20.9090909,13.5909091 L17.7727273,16.7272727 L11.5,16.7272727 L8.36363636,19.8636364 L8.36363636,16.7272727 L4.18181818,16.7272727 L4.18181818,2.09090909 Z M9.40909091,6.27272727 L9.40909091,12.5454545 L11.5,12.5454545 L11.5,6.27272727 L9.40909091,6.27272727 Z M14.6363636,6.27272727 L14.6363636,12.5454545 L16.7272727,12.5454545 L16.7272727,6.27272727 L14.6363636,6.27272727 Z"></path>
        </g>
    </g>
</svg>