<?xml version="1.0" encoding="UTF-8"?>
<svg width="26px" height="25px" viewBox="0 0 26 25" version="1.1" xmlns="http://www.w3.org/2000/svg" xmlns:xlink="http://www.w3.org/1999/xlink">
    <title>youtube</title>
    <g id="youtube" stroke="none" stroke-width="1" fill="none" fill-rule="evenodd">
        <g transform="translate(0.000000, 3.000000)" fill="#02365E" fill-rule="nonzero" id="Shape">
            <path d="M13,0 C9.234375,0 5.90625,0.390625 3.875,0.6875 C2.195313,0.933594 0.839844,2.199219 0.53125,3.875 C0.269531,5.300781 0,7.386719 0,10 C0,12.613281 0.269531,14.699219 0.53125,16.125 C0.839844,17.800781 2.195313,19.070313 3.875,19.3125 C5.914063,19.609375 9.253906,20 13,20 C16.746094,20 20.085938,19.609375 22.125,19.3125 C23.804688,19.070313 25.160156,17.800781 25.46875,16.125 C25.730469,14.695313 26,12.605469 26,10 C26,7.394531 25.734375,5.304688 25.46875,3.875 C25.160156,2.199219 23.804688,0.933594 22.125,0.6875 C20.09375,0.390625 16.765625,0 13,0 Z M13,2 C16.632813,2 19.878906,2.371094 21.84375,2.65625 C22.6875,2.78125 23.347656,3.417969 23.5,4.25 C23.742188,5.570313 24,7.527344 24,10 C24,12.46875 23.742188,14.429688 23.5,15.75 C23.347656,16.582031 22.691406,17.222656 21.84375,17.34375 C19.871094,17.628906 16.609375,18 13,18 C9.390625,18 6.125,17.628906 4.15625,17.34375 C3.3125,17.222656 2.652344,16.582031 2.5,15.75 C2.257813,14.429688 2,12.476563 2,10 C2,7.519531 2.257813,5.570313 2.5,4.25 C2.652344,3.417969 3.308594,2.78125 4.15625,2.65625 C6.117188,2.371094 9.367188,2 13,2 Z M10,4.28125 L10,15.71875 L11.5,14.875 L18.5,10.875 L20,10 L18.5,9.125 L11.5,5.125 L10,4.28125 Z M12,7.71875 L15.96875,10 L12,12.28125 L12,7.71875 Z"></path>
        </g>
    </g>
</svg>